<svg width="20" height="20" viewBox="0 0 20 20" fill="none" xmlns="http://www.w3.org/2000/svg">
    <path fill-rule="evenodd" clip-rule="evenodd" d="M1.74 9.71013C1.83762 9.52791 2.02083 9.22391 2.28775 8.83817C2.72953 8.19972 3.2508 7.56167 3.85104 6.9641C5.59815 5.22475 7.65294 4.16666 10 4.16666C12.3471 4.16666 14.4019 5.22475 16.149 6.9641C16.7492 7.56167 17.2705 8.19972 17.7123 8.83817C17.9792 9.22391 18.1624 9.52791 18.26 9.71013C18.3578 9.8926 18.3578 10.1074 18.26 10.2899C18.1624 10.4721 17.9792 10.7761 17.7123 11.1618C17.2705 11.8003 16.7492 12.4383 16.149 13.0359C14.4019 14.7752 12.3471 15.8333 10 15.8333C7.65294 15.8333 5.59815 14.7752 3.85104 13.0359C3.2508 12.4383 2.72953 11.8003 2.28775 11.1618C2.02083 10.7761 1.83762 10.4721 1.74 10.2899C1.64225 10.1074 1.64225 9.8926 1.74 9.71013ZM10 13.3333C11.841 13.3333 13.3334 11.8409 13.3334 9.99999C13.3334 8.15904 11.841 6.66666 10 6.66666C8.15907 6.66666 6.66669 8.15904 6.66669 9.99999C6.66669 11.8409 8.15907 13.3333 10 13.3333ZM10 11.6667C9.07955 11.6667 8.33335 10.9205 8.33335 9.99999C8.33335 9.07951 9.07955 8.33332 10 8.33332C10.9205 8.33332 11.6667 9.07951 11.6667 9.99999C11.6667 10.9205 10.9205 11.6667 10 11.6667Z" fill="#8F92A1"/>
</svg>
