<svg width="65" height="60" viewBox="0 0 65 60" fill="none" xmlns="http://www.w3.org/2000/svg">
    <path d="M18.1274 60C16.4487 60 15.4721 58.8146 15.4721 56.9909V48.6322H14.1902C5.67511 48.6322 0.913956 43.8602 0.913956 35.3799V13.2523C0.913956 4.80243 5.64459 0 14.2513 0H51.3334C59.9401 0 64.6402 4.80243 64.6402 13.2523V35.3799C64.6402 43.8602 59.9401 48.693 51.3334 48.6626L32.0141 48.6322L21.5151 58.1459C20.1112 59.4225 19.2871 60 18.1274 60ZM20.5079 36.2006H36.0427C39.0642 36.2006 40.8039 34.4985 40.8039 31.5502V17.1125C40.8039 14.1337 39.2168 12.4316 36.1953 12.4316H20.5079C17.639 12.4316 15.7163 14.1337 15.7163 17.1125V31.5502C15.7163 34.4985 17.517 36.2006 20.5079 36.2006ZM42.4825 28.4195L48.1593 33.2523C48.7086 33.6778 49.319 33.9818 49.8379 33.9818C50.9976 33.9818 51.7606 33.1915 51.7606 31.9149V16.7173C51.7606 15.4711 50.9976 14.6809 49.8379 14.6809C49.319 14.6809 48.6781 14.9848 48.1593 15.3799L42.4825 20.2128V28.4195Z" fill="#4178F3"/>
</svg>
